<?xml version="1.0" encoding="UTF-8" standalone="no"?>
<svg
   viewBox="0 0 240 260"
   width="100%"
   height="100%"
   version="1.1"
   id="svg6"
   sodipodi:docname="favicon.svg"
   inkscape:version="1.4.4 (dcaf3e7d9e, 2026-05-05)"
   xmlns:inkscape="http://www.inkscape.org/namespaces/inkscape"
   xmlns:sodipodi="http://sodipodi.sourceforge.net/DTD/sodipodi-0.dtd"
   xmlns="http://www.w3.org/2000/svg"
   xmlns:svg="http://www.w3.org/2000/svg">
  <defs
     id="defs6" />
  <sodipodi:namedview
     id="namedview6"
     pagecolor="#ffffff"
     bordercolor="#000000"
     borderopacity="0.25"
     inkscape:showpageshadow="2"
     inkscape:pageopacity="0.0"
     inkscape:pagecheckerboard="0"
     inkscape:deskcolor="#d1d1d1"
     inkscape:zoom="2.1838721"
     inkscape:cx="120.4283"
     inkscape:cy="153.62621"
     inkscape:window-width="1853"
     inkscape:window-height="1011"
     inkscape:window-x="0"
     inkscape:window-y="0"
     inkscape:window-maximized="1"
     inkscape:current-layer="svg6" />
  <rect
     style="fill:#13172a;fill-opacity:1"
     id="rect1"
     width="240"
     height="260"
     x="0"
     y="0" />
  <g
     id="sand"
     fill="#d4a336"
     stroke="#d4a336"
     stroke-width="4"
     stroke-linejoin="round"
     transform="matrix(0.83324946,0,0,0.83324946,20.010065,20.427696)">
    <path
       d="m 72,80 c 18,20 58,-15 96,0 -26.68757,32.52375 -43,42 -48,42 -5,0 -24.713336,-13.87645 -48,-42 z"
       id="path1"
       sodipodi:nodetypes="ccsc" />
    <path
       d="m 62,216 q 58,-66 116,0 z"
       id="path2" />
    <circle
       cx="120"
       cy="134"
       r="2.5"
       stroke="none"
       id="circle2" />
    <circle
       cx="120"
       cy="144"
       r="2.5"
       stroke="none"
       id="circle3" />
    <circle
       cx="120"
       cy="154"
       r="2.5"
       stroke="none"
       id="circle4" />
  </g>
  <g
     id="glass"
     stroke="#ffffff"
     stroke-width="5"
     stroke-linecap="round"
     stroke-linejoin="round"
     fill="none"
     transform="matrix(0.83324946,0,0,0.83324946,20.010065,20.427696)"
     style="stroke-width:12.0012079;stroke-dasharray:none">
    <line
       x1="36"
       y1="30"
       x2="204"
       y2="30"
       id="line4"
       style="stroke-width:12.0012079;stroke-dasharray:none" />
    <line
       x1="36"
       y1="230"
       x2="204"
       y2="230"
       id="line5"
       style="stroke-width:12.0012079;stroke-dasharray:none" />
    <path
       d="m 48,30 c 2,55 57,70 57,100 0,30 -55,45 -57,100"
       id="path5"
       style="stroke-width:12.0012079;stroke-dasharray:none" />
    <path
       d="m 192,30 c -2,55 -57,70 -57,100 0,30 55,45 57,100"
       id="path6"
       style="stroke-width:12.0012079;stroke-dasharray:none" />
  </g>
</svg>
